HIERARCHY
ROOT Hips
{
     OFFSET 23.50630 94.69270 -19.95070
     CHANNELS 6 Xposition Yposition Zposition Zrotation Xrotation Yrotation
     JOINT Spine
     {
          OFFSET 0.00000 11.89050 -0.00000
          CHANNELS 3 Zrotation Xrotation Yrotation
          JOINT Spine1
          {
               OFFSET 0.00000 25.65740 0.12766
               CHANNELS 3 Zrotation Xrotation Yrotation
               JOINT HEad
               {
                    OFFSET 0.00000 8.73416 0.01134
                    CHANNELS 3 Zrotation Xrotation Yrotation
                    End Site
                    {
                         OFFSET -0.29000 12.77420 2.51395
                    }
               }
               JOINT LeftShoulder1
               {
                    OFFSET 8.99000 -0.36225 -0.22000
                    CHANNELS 3 Zrotation Xrotation Yrotation
                    JOINT LeftArm
                    {
                         OFFSET 10.28270 -0.00338 0.32212
                         CHANNELS 3 Zrotation Xrotation Yrotation
                         JOINT LeftForeArm
                         {
                              OFFSET 32.76690 0.09914 -1.42434
                              CHANNELS 3 Zrotation Xrotation Yrotation
                              JOINT LeftHand
                              {
                                   OFFSET 27.56430 0.08536 1.02216
                                   CHANNELS 3 Zrotation Xrotation Yrotation
                                   End Site
                                   {
                                        OFFSET 16.74430 -0.60000 1.50291
                                   }
                              }
                         }
                    }
               }
               JOINT RightShoulder
               {
                    OFFSET -8.99000 -0.36225 -0.22000
                    CHANNELS 3 Zrotation Xrotation Yrotation
                    JOINT RightArm
                    {
                         OFFSET -10.28270 -0.00338 0.32212
                         CHANNELS 3 Zrotation Xrotation Yrotation
                         JOINT RightForeArm
                         {
                              OFFSET -32.89710 0.09914 -1.42434
                              CHANNELS 3 Zrotation Xrotation Yrotation
                              JOINT RightHand
                              {
                                   OFFSET -27.49210 0.08536 1.02216
                                   CHANNELS 3 Zrotation Xrotation Yrotation
                                   End Site
                                   {
                                        OFFSET -16.63120 -0.60000 1.50291
                                   }
                              }
                         }
                    }
               }
          }
     }
     JOINT LeftUpLeg
     {
          OFFSET 8.94580 -8.66707 0.10165
          CHANNELS 3 Zrotation Xrotation Yrotation
          JOINT LeftLeg
          {
               OFFSET -0.00000 -44.42270 1.37270
               CHANNELS 3 Zrotation Xrotation Yrotation
               JOINT LeftFoot
               {
                    OFFSET -0.25355 -42.09240 -1.46059
                    CHANNELS 3 Zrotation Xrotation Yrotation
                    JOINT LeftToes
                    {
                         OFFSET -0.04000 -4.41509 8.49910
                         CHANNELS 3 Zrotation Xrotation Yrotation
                         End Site
                         {
                              OFFSET 0.08000 -0.04745 9.77979
                         }
                    }
               }
          }
     }
     JOINT RightUpLeg
     {
          OFFSET -8.94580 -8.66707 0.10165
          CHANNELS 3 Zrotation Xrotation Yrotation
          JOINT RightLeg
          {
               OFFSET -0.00000 -44.42270 1.37270
               CHANNELS 3 Zrotation Xrotation Yrotation
               JOINT RightFoot
               {
                    OFFSET 0.25355 -42.09240 -1.46059
                    CHANNELS 3 Zrotation Xrotation Yrotation
                    JOINT RightToes
                    {
                         OFFSET 0.04000 -4.41509 8.49910
                         CHANNELS 3 Zrotation Xrotation Yrotation
                         End Site
                         {
                              OFFSET -0.08000 -0.13745 9.77979
                         }
                    }
               }
          }
     }
}
MOTION
Frames: 10
Frame Time: 0.01667
26.05260 87.16050 -2.83003 -13.12200 -9.64973 -41.39360 11.76580 9.02243 -4.19845 2.14393 20.56710 -4.81630 -6.98670 -6.61228 24.01320 -0.00000 0.00000 -0.00000 -171.64200 -63.25600 -141.11200 -46.95930 64.73780 -67.32720 24.16280 6.88265 -10.29240 8.66292 0.24354 -0.92255 92.27280 7.96647 73.85550 -11.93500 22.01300 116.82500 14.81170 10.16020 -2.38907 29.59770 -18.32900 -25.30310 -28.68310 29.39080 84.82720 -34.40230 -10.34280 -0.79319 12.19990 18.77880 -45.54540 -29.94320 8.28954 21.96920 38.08450 22.12940 -26.66550 -24.94420 -9.20026 -0.52696 3.60296 -41.62460 0.10549 
26.54260 87.37150 -1.69270 -12.80720 -9.50712 -40.97200 10.45770 9.03978 -4.08306 2.18519 20.29960 -5.07850 -7.50582 -6.24202 23.88390 -0.00000 0.00000 -0.00000 -171.94901 -63.85240 -141.63400 -44.37500 65.10720 -69.54930 24.50660 7.00680 -9.49282 9.25341 0.18442 -1.43248 92.49950 6.67423 73.80790 -13.42800 20.81810 118.54900 15.99470 9.92163 -4.17536 30.22150 -17.46650 -22.43620 -27.96620 27.33210 82.91620 -30.81660 -8.32240 -0.15024 12.20550 18.08990 -45.88700 -30.78110 8.97055 22.68510 37.63420 20.60030 -25.96710 -24.74650 -7.28458 -0.08619 3.20360 -42.21070 -1.65879 
26.99310 88.02180 -0.82469 -12.22980 -9.65854 -40.19770 8.16022 9.19536 -3.90682 2.05170 20.11630 -5.36559 -7.66832 -5.72329 23.73620 -0.00000 0.00000 -0.00000 -171.56500 -64.69340 -141.68600 -40.21880 65.34010 -73.11520 24.96330 7.17470 -8.45023 9.86881 0.11505 -1.97998 92.81400 4.70886 74.09080 -14.63650 19.69130 120.31500 17.39370 9.63397 -6.01686 30.85410 -15.50660 -18.59410 -26.93280 23.05370 78.98220 -24.47410 -4.45797 0.70790 12.39040 15.07890 -48.00240 -31.81760 9.91464 23.65190 37.14090 18.40280 -25.33940 -24.71240 -4.46049 0.55500 2.77165 -42.80020 -3.46480 
27.46340 88.96330 -0.10819 -11.47620 -10.07090 -38.98810 5.24998 9.44058 -3.73149 1.75844 20.02510 -5.63148 -7.36576 -5.15305 23.54470 -0.00000 0.00000 -0.00000 -170.15700 -65.77040 -140.97701 -34.51010 65.25020 -78.00840 25.39960 7.42080 -7.09792 10.51610 0.03649 -2.54947 93.21970 1.88446 74.74500 -15.54890 18.68490 122.07700 18.94610 9.31057 -7.77046 31.01960 -12.67920 -14.44590 -25.79450 17.13100 74.27190 -16.84150 1.10678 1.27470 12.50500 9.91273 -51.77120 -33.04740 10.96530 24.79160 36.82140 16.03520 -24.91830 -24.74350 -0.92644 1.35477 2.30575 -43.25610 -5.29342 
28.03030 89.92730 0.66466 -10.70880 -10.63820 -37.30650 2.47405 9.67499 -3.62301 1.39708 19.97160 -5.80876 -6.70368 -4.53895 23.12150 -0.00000 0.00000 -0.00000 -167.25600 -67.11050 -139.04300 -27.82060 64.56450 -83.70650 25.64970 7.75852 -5.45237 11.23560 -0.05730 -3.17376 93.64380 -1.92492 75.76960 -16.06120 17.89590 123.72000 20.49280 8.97849 -9.30694 30.42780 -9.79826 -11.01480 -24.90470 11.06460 70.46940 -9.80503 7.14455 1.20688 12.23070 3.71057 -56.39620 -34.31930 11.82320 25.89250 36.83230 14.42140 -24.80250 -24.49460 2.90307 2.19203 1.85209 -43.43340 -6.99212 
28.74900 90.54960 1.75988 -10.04450 -11.35150 -35.19230 0.64221 9.75556 -3.61297 1.00096 19.84970 -5.82148 -5.84145 -3.79158 22.22700 -0.00000 0.00000 -0.00000 -162.52200 -68.67830 -135.48700 -21.13900 63.15460 -89.27740 25.63760 8.15690 -3.64742 12.08870 -0.18564 -3.95889 93.94470 -6.71409 77.11030 -16.11650 17.38420 125.12600 21.87220 8.66873 -10.56060 29.08790 -8.27114 -8.94594 -24.58540 7.70096 68.41960 -5.09973 11.66720 0.77117 11.46990 -2.29605 -60.85770 -35.50430 12.11190 26.75220 37.26130 14.79960 -25.08690 -23.49330 6.51028 2.86340 1.49199 -43.39330 -8.32062 
29.60400 90.83120 3.13708 -9.83169 -11.76880 -32.75890 0.57488 9.57382 -3.66953 0.80889 19.57770 -5.62918 -4.86508 -2.81640 20.69900 -0.00000 0.00000 -0.00000 -155.69901 -70.36040 -130.01500 -15.39730 61.04190 -93.80060 25.43930 8.54855 -1.91336 13.03720 -0.37054 -5.00879 94.00100 -12.35070 78.67130 -15.80410 17.09170 126.23800 23.01840 8.39955 -11.54200 27.88140 -8.65106 -8.23560 -24.76160 7.79981 67.73860 -3.03201 13.90850 0.46907 10.41380 -7.32851 -64.47140 -35.94520 11.83550 27.06670 37.91950 16.85090 -25.30160 -21.92760 10.37680 3.43004 1.26663 -43.26180 -9.15631 
30.42390 91.16440 4.51215 -9.45172 -12.19900 -29.83950 0.64882 9.28783 -3.70050 0.49513 19.16710 -5.29268 -3.74245 -1.65953 18.53110 -0.00000 0.00000 -0.00000 -146.30400 -72.02000 -122.21800 -11.23890 58.23310 -96.58070 25.24690 8.86057 -0.51455 13.91500 -0.61035 -6.29644 93.76560 -18.68760 80.33520 -15.27830 16.92770 127.04900 23.99420 8.16884 -12.30830 26.39130 -9.18978 -8.78855 -24.98360 7.71814 67.52940 -1.59849 14.96070 0.20870 9.32046 -11.22260 -67.14630 -36.10160 11.36550 27.22610 38.45030 19.35270 -25.11510 -20.14570 15.20030 4.02304 1.13841 -42.87840 -9.64784 
31.13880 91.54750 5.82041 -8.83995 -12.58020 -26.36430 0.78274 8.91181 -3.74555 0.03708 18.62360 -4.92636 -2.36571 -0.56412 15.85950 -0.00000 0.00000 -0.00000 -133.64200 -73.44370 -111.56700 -8.95155 54.68360 -97.26090 25.24380 9.04634 0.34907 14.55160 -0.87984 -7.70969 93.21590 -25.57250 81.96290 -14.66540 16.86760 127.57900 24.98520 7.95011 -12.95420 24.55270 -9.82339 -10.00280 -24.93350 7.40915 67.12520 -0.44255 15.52540 -0.01966 8.31493 -14.22300 -69.17850 -35.88360 10.81860 27.29120 38.76680 22.06330 -23.94180 -18.25120 20.88190 4.58467 1.10404 -41.74020 -9.83081 
31.68490 91.96320 7.01158 -7.95169 -12.86090 -22.25940 0.89898 8.47296 -3.84990 -0.59840 17.98460 -4.63811 -0.66097 0.19451 12.85580 -0.00000 0.00000 -0.00000 -117.73200 -74.30320 -98.22140 -8.36474 50.40530 -96.02940 25.47460 9.10719 0.66774 14.82290 -1.16424 -9.25098 92.26190 -32.67390 83.32600 -14.05400 16.90630 127.85100 26.30340 7.68137 -13.64140 22.31430 -10.53240 -11.45590 -24.38490 6.91719 66.12260 0.66714 16.13130 -0.25032 7.44015 -16.55290 -70.86990 -35.26430 10.33500 27.30460 38.90520 24.80640 -21.44040 -16.25420 26.86980 4.98131 1.38624 -39.50690 -8.71232 
